<svg version="1.1" id="Layer_1" xmlns="http://www.w3.org/2000/svg" xmlns:xlink="http://www.w3.org/1999/xlink" x="0px" y="0px"
	 width="100%" viewBox="0 0 1024 1024" enable-background="new 0 0 1024 1024" xml:space="preserve">
<path fill="#FCFCFC" opacity="1.000000" stroke="none" 
	d="
M596.000000,1025.000000 
	C397.333344,1025.000000 199.166672,1025.000000 1.000000,1025.000000 
	C1.000000,683.666687 1.000000,342.333344 1.000000,1.000000 
	C342.333344,1.000000 683.666687,1.000000 1025.000000,1.000000 
	C1025.000000,342.333344 1025.000000,683.666687 1025.000000,1025.000000 
	C882.166687,1025.000000 739.333313,1025.000000 596.000000,1025.000000 
M924.317322,536.060364 
	C924.422180,517.764465 924.587341,499.468689 924.619812,481.172638 
	C924.698608,436.759125 924.719238,392.345520 924.744934,347.931946 
	C924.745911,346.279633 924.556763,344.627167 924.664551,342.188019 
	C924.232788,333.182770 922.201111,324.628937 917.287964,316.134064 
	C914.051331,311.659729 910.814697,307.185425 907.231018,302.113342 
	C901.099609,295.575806 893.514343,291.935120 884.797791,289.965515 
	C797.516174,270.243073 710.261902,250.400253 623.000305,230.589355 
	C590.402039,223.188614 557.804993,215.782715 524.536560,208.072754 
	C519.691101,207.052704 514.845581,206.032654 509.340546,204.645355 
	C507.608490,204.291183 505.876404,203.937027 503.507996,203.212799 
	C500.340515,202.552963 497.173004,201.893127 493.282745,200.936935 
	C490.187622,200.312500 487.092468,199.688065 483.299713,198.737076 
	C482.499847,198.509598 481.708038,198.247467 480.898987,198.059540 
	C401.831940,179.695145 322.756866,161.365265 243.701736,142.949768 
	C229.962616,139.749313 216.451996,135.148712 201.314117,137.045639 
	C200.263885,137.409790 199.213654,137.773926 197.244202,138.031967 
	C195.587509,138.030533 193.893463,137.800354 192.280029,138.063828 
	C179.306000,140.182510 166.263870,141.992737 153.401138,144.661636 
	C127.161461,150.106125 106.160316,177.770126 106.168427,206.180649 
	C106.196678,305.145691 106.215538,404.110718 106.252106,503.075745 
	C106.253334,506.397430 106.406311,509.719055 106.304871,513.956970 
	C106.288383,525.620728 106.259666,537.284485 106.257385,548.948242 
	C106.241859,628.428894 106.113968,707.909729 106.277252,787.390015 
	C106.344048,819.904541 130.780075,847.197021 162.896454,851.439026 
	C166.692551,851.940430 170.504440,852.330811 174.291092,852.893188 
	C182.823181,854.160461 191.344025,855.503235 200.642624,857.147400 
	C205.695999,857.657898 210.865341,859.114380 215.782272,858.511780 
	C234.893539,856.169189 253.924652,853.172546 273.875214,850.461670 
	C280.247864,849.529724 286.620483,848.597778 293.806396,847.760925 
	C305.912506,846.049316 318.018585,844.337708 330.869141,842.679626 
	C331.579559,842.469055 332.289978,842.258484 333.756897,842.166626 
	C334.505585,842.031311 335.254242,841.895996 336.641327,841.870850 
	C337.453125,841.651428 338.264923,841.432068 339.957397,841.299072 
	C341.942841,841.075623 343.934601,840.897827 345.912750,840.622009 
	C385.797394,835.061279 425.676270,829.458679 465.565247,823.929077 
	C497.705627,819.473633 529.857849,815.103699 562.810974,810.780579 
	C568.874146,809.872498 574.937256,808.964417 581.853455,808.164551 
	C585.297607,807.667175 588.741699,807.169739 592.915894,806.740295 
	C593.611877,806.536438 594.307800,806.332581 595.891418,806.232666 
	C611.929382,804.047791 627.967346,801.862915 644.796021,799.768921 
	C648.530518,799.168152 652.265076,798.567322 656.861633,798.070984 
	C690.148926,793.535156 723.439941,789.026306 756.722595,784.456665 
	C798.739441,778.687927 840.731567,772.734009 882.775146,767.168213 
	C893.245605,765.782166 902.118225,762.046814 909.667542,753.744324 
	C919.643433,742.401184 924.608032,729.137512 924.614197,714.070984 
	C924.632263,670.164368 924.615173,626.257690 924.533875,582.351196 
	C924.505920,567.224365 924.247864,552.097961 924.317322,536.060364 
z"/>
<path fill="#F66402" opacity="1.000000" stroke="none" 
	d="
M655.999573,797.966553 
	C652.265076,798.567322 648.530518,799.168152 644.409546,799.361328 
	C645.656067,795.190796 644.033875,792.072937 640.458984,792.318970 
	C634.918213,792.700256 629.498901,794.697510 623.998108,795.868774 
	C621.015137,796.504028 617.197571,798.207397 615.121460,797.027405 
	C611.330933,794.873169 609.186279,795.319214 607.403809,798.455750 
	C605.937012,796.705017 604.677124,795.201294 603.417297,793.697571 
	C602.955627,794.133850 602.493896,794.570129 602.032227,795.006409 
	C602.587708,796.442627 603.143188,797.878784 603.914185,799.872070 
	C600.477478,800.391479 597.384155,800.858948 594.028503,801.366150 
	C594.420410,803.280151 594.712036,804.704468 595.003723,806.128784 
	C594.307800,806.332581 593.611877,806.536438 592.430542,806.324951 
	C589.813416,803.421631 587.681641,800.933716 585.281616,798.132874 
	C588.249329,796.944153 589.974365,796.253174 591.888489,795.486511 
	C587.565430,789.391235 583.506592,793.281799 579.301147,794.788513 
	C579.868591,799.218933 580.434509,803.637634 581.000427,808.056335 
	C574.937256,808.964417 568.874146,809.872498 562.419189,810.355713 
	C562.337158,808.204102 562.646973,806.477356 563.077454,804.078003 
	C560.556641,804.215698 558.195312,803.640625 556.818054,804.552307 
	C552.738098,807.252808 549.938843,805.447510 546.509827,803.207214 
	C543.126099,800.996765 539.208557,798.783691 535.331360,798.364258 
	C530.886414,797.883484 526.242249,799.515808 521.659058,799.975159 
	C515.645691,800.577881 514.192505,802.438049 515.256531,808.432739 
	C515.494690,809.774414 515.221191,811.206909 515.183167,812.597595 
	C513.931641,812.116577 512.683044,811.627563 511.427551,811.157166 
	C510.376404,810.763367 509.303680,810.028320 508.263611,810.066895 
	C500.075317,810.370789 491.699829,809.912476 483.782898,811.585754 
	C479.286102,812.536194 476.001892,811.644104 471.982910,810.706665 
	C464.897644,809.053894 457.512634,807.422607 450.352539,807.779236 
	C445.212524,808.035156 440.234467,811.542358 434.866699,813.728455 
	C435.721680,816.017639 436.923187,817.646362 436.673035,819.008484 
	C436.419342,820.390137 434.901215,822.326111 433.640472,822.587097 
	C430.026093,823.334961 426.241943,823.725342 422.563385,823.528809 
	C420.304962,823.408203 417.517731,822.528137 416.027008,820.973450 
	C413.158173,817.981873 410.488708,816.770081 407.058228,819.502808 
	C404.561584,821.491516 402.546173,821.208435 399.869354,819.585815 
	C397.876434,818.377747 395.156921,818.368408 392.761047,817.825134 
	C392.632202,818.352478 392.503387,818.879883 392.374542,819.407288 
	C394.907471,821.263000 397.440369,823.118774 400.214661,825.151367 
	C392.030609,830.864258 383.502563,829.544678 375.233032,828.246094 
	C372.748138,827.855835 369.843842,826.346558 367.396088,825.345337 
	C361.830627,823.068970 355.225800,823.233765 349.018677,822.688232 
	C347.200897,822.528503 345.293304,823.638062 343.438232,823.600769 
	C340.217896,823.536072 339.182709,825.246277 339.827606,828.473633 
	C340.364136,831.158752 339.869965,834.065247 339.714386,836.867065 
	C339.633575,838.322876 339.297485,839.764587 339.076721,841.212646 
	C338.264923,841.432068 337.453125,841.651428 336.321686,841.422119 
	C335.929016,839.475891 335.855957,837.978394 335.782898,836.480835 
	C335.158936,836.402771 334.534973,836.324646 333.910980,836.246582 
	C333.607452,838.180298 333.303894,840.114075 333.000366,842.047852 
	C332.289978,842.258484 331.579559,842.469055 330.430817,842.228882 
	C329.613312,841.277039 329.275879,840.379578 328.848602,840.334595 
	C323.107452,839.729797 317.488312,836.356079 311.537506,839.604980 
	C310.628052,840.101501 308.764648,840.323669 308.225616,839.786438 
	C304.745636,836.318909 301.417236,837.469971 298.231873,840.145203 
	C295.897217,835.618713 295.897217,835.618713 292.024963,837.262695 
	C292.576263,838.563782 293.127075,839.863708 293.695740,841.205811 
	C292.438660,841.824768 291.355713,842.357910 290.485504,842.786377 
	C291.434082,844.632202 292.213623,846.148987 292.993134,847.665833 
	C286.620483,848.597778 280.247864,849.529724 273.434753,850.014587 
	C272.399353,845.253296 270.019165,843.830322 266.577515,844.825806 
	C262.721771,845.941040 258.655273,846.601501 254.645187,846.824341 
	C251.307327,847.009705 247.918396,846.275391 244.376251,845.931396 
	C244.376251,844.917236 244.376251,843.594238 244.376251,841.302551 
	C242.550613,843.003845 241.370377,843.966370 240.360184,845.082764 
	C239.306931,846.246887 238.417648,847.559265 237.222122,849.111267 
	C235.723129,848.217529 234.390671,847.423096 233.158554,846.688477 
	C233.727539,844.954285 234.123749,843.746704 234.793076,841.706665 
	C232.086639,843.234192 230.300964,844.381409 228.393158,845.264893 
	C227.297623,845.772278 226.004059,845.851990 224.799622,846.124146 
	C224.597855,844.695679 224.301758,843.271545 224.235626,841.836792 
	C224.204361,841.158813 224.613647,840.460449 224.875793,839.598938 
	C222.143661,840.117249 219.829102,840.848877 217.488205,840.945984 
	C210.249863,841.245972 209.295181,842.598755 212.740753,848.773376 
	C211.154312,849.821167 209.545456,850.883728 208.065414,851.861206 
	C200.969345,847.770935 194.550613,842.221252 186.048203,847.205505 
	C185.133179,844.853394 184.603943,842.974487 183.707916,841.290771 
	C181.386749,836.929077 177.347321,839.323669 174.000122,838.591614 
	C174.667496,833.819885 175.667786,829.474915 175.909653,825.088196 
	C176.174637,820.282288 174.527206,819.405090 170.237473,821.372192 
	C167.570343,822.595154 164.889252,823.787598 161.992523,824.707886 
	C160.321732,820.656738 158.872864,816.891541 157.790802,813.077881 
	C158.599548,812.502625 159.041489,811.975769 159.483429,811.448853 
	C158.526337,811.010742 157.569260,810.572693 156.423431,809.866577 
	C156.141769,808.736145 156.048859,807.873779 156.332184,806.933655 
	C158.444977,804.155701 159.667450,801.619019 154.654572,800.636108 
	C154.332352,799.115112 154.088333,797.963135 154.089020,796.811218 
	C154.108932,763.459106 154.153320,730.106995 154.602905,696.846191 
	C159.894928,699.204163 157.555710,702.794006 157.353836,706.530701 
	C156.938644,714.216309 157.530762,721.981262 158.090363,729.685852 
	C158.457169,734.735901 156.750305,740.896667 163.753189,743.301208 
	C163.810532,743.320923 163.673080,743.907959 163.622650,744.229492 
	C157.233719,746.664307 156.079971,752.954468 160.187622,765.154663 
	C163.169830,759.370361 163.283234,754.027710 161.036957,748.559998 
	C163.024063,748.347595 164.798172,748.686462 165.680984,747.952881 
	C167.485031,746.453674 168.889893,744.437622 170.316849,742.528015 
	C174.716812,736.640015 177.732834,736.866699 182.088501,742.991089 
	C184.669235,746.619873 187.835876,749.831909 191.354446,753.951843 
	C193.626816,750.250977 196.547104,747.616577 196.771057,744.770081 
	C197.855270,730.989746 198.269409,717.154541 198.795990,703.333984 
	C198.938019,699.605957 198.526138,695.859741 198.574493,692.124634 
	C198.649033,686.365051 198.818924,680.602478 199.185196,674.856323 
	C199.229523,674.160950 200.740707,673.559082 201.652588,673.333191 
	C201.711075,706.831787 201.689011,739.911133 201.285187,772.992126 
	C197.542084,772.545471 195.729675,774.310425 194.390503,777.184265 
	C192.514191,781.210693 190.477554,785.171814 188.316910,789.053772 
	C186.181030,792.890991 183.805649,796.594971 180.998093,801.247864 
	C186.748825,799.124268 191.583221,797.339050 196.802185,795.411865 
	C196.572586,792.311951 198.029099,789.704102 202.282898,789.263428 
	C202.565323,790.968445 202.502213,792.413330 202.578247,793.850830 
	C202.710815,796.357300 202.039581,800.345581 203.277191,801.086182 
	C207.090622,803.368530 210.473312,807.852356 216.098221,805.495239 
	C218.316360,804.565796 220.829697,804.340698 223.162781,803.770630 
	C223.116928,803.746338 223.215714,803.714661 223.178589,804.098511 
	C225.582260,806.057251 227.853760,808.044250 230.495636,809.129578 
	C238.312500,812.340942 248.405365,809.626160 253.362839,803.299316 
	C254.482559,803.164917 255.241364,803.154053 256.048279,803.431274 
	C256.435974,804.001221 256.775604,804.283203 257.115234,804.565186 
	C257.410553,804.039246 257.705902,803.513306 258.336090,802.839661 
	C260.113464,802.533386 261.555969,802.374756 263.067474,802.591553 
	C263.833313,803.604919 264.568634,804.831177 265.221008,804.788513 
	C270.945068,804.414612 277.098267,804.959839 282.245361,802.964844 
	C287.588348,800.893921 292.433624,800.395691 297.528809,802.012390 
	C305.363312,804.498413 312.526154,802.134766 319.644714,799.484802 
	C320.740540,799.076843 321.225769,797.028809 322.313293,795.562744 
	C324.088837,795.300293 325.544464,795.214355 327.068451,795.459167 
	C329.490417,797.956970 331.004150,797.113586 332.323975,794.309814 
	C333.094696,794.200134 333.546387,794.212280 334.067780,794.599304 
	C337.217987,797.663147 349.861359,797.049744 354.879181,795.188965 
	C359.403992,793.510986 364.563690,792.562256 369.359558,792.824524 
	C376.889679,793.236328 383.804108,792.524597 390.386536,787.823364 
	C394.317139,787.417175 397.862671,787.151001 401.861816,786.939575 
	C411.709930,787.300781 421.103668,787.644958 430.500397,787.850464 
	C431.357178,787.869141 432.186890,786.776062 433.109436,786.583130 
	C435.788727,786.022888 438.811951,784.678894 441.154785,785.404236 
	C447.583618,787.394592 453.566101,786.632324 459.367432,783.917664 
	C461.211182,783.054871 462.475922,780.954712 464.366333,779.298401 
	C465.484833,779.166748 466.242584,779.157471 467.077545,779.489380 
	C469.068756,781.694763 470.432037,781.616272 471.134888,778.698303 
	C471.267731,778.656677 471.417511,778.891357 471.850647,778.939819 
	C474.121521,779.656677 475.945801,780.858582 477.799347,780.905640 
	C488.654297,781.180969 499.404633,780.177673 509.984039,777.581726 
	C511.032593,777.324463 512.223999,777.489136 513.325806,777.634583 
	C521.456726,778.707275 528.512024,776.074280 535.362305,771.312805 
	C536.482483,771.183472 537.241455,771.177307 538.109863,771.552307 
	C538.750977,772.270325 539.266602,772.870361 539.816650,772.903748 
	C546.259338,773.295166 552.704163,773.711182 559.154846,773.882263 
	C562.191223,773.962708 565.642090,774.368652 568.198669,773.147827 
	C572.998291,770.855957 577.325500,769.715271 582.167725,772.683350 
	C582.982422,773.182739 584.446411,772.862549 585.543152,772.618652 
	C589.397705,771.761536 593.413635,771.225281 597.007568,769.710938 
	C600.884094,768.077515 604.355164,765.481873 608.326599,763.201416 
	C609.100220,763.115906 609.550293,763.135010 610.063232,763.478882 
	C611.084839,763.509460 612.043579,763.215271 613.332031,762.761536 
	C615.108032,762.466125 616.554321,762.330200 618.108521,762.567627 
	C624.861877,763.596497 631.197083,767.014160 638.226501,764.542114 
	C641.420288,763.419006 645.018860,763.372314 648.452637,763.021912 
	C655.513123,762.301453 662.576355,761.375977 669.657471,761.162476 
	C675.313477,760.992004 680.772034,754.816162 686.379211,761.383972 
	C688.615601,757.468689 691.124084,756.615356 694.733948,757.814087 
	C696.229919,758.310913 698.239197,757.403748 699.981567,756.992920 
	C707.394775,755.244995 714.741394,753.143982 722.224304,751.792114 
	C725.814270,751.143555 729.657410,751.804199 733.378540,752.006775 
	C735.799377,752.138672 737.297363,751.500183 737.290527,748.563416 
	C738.724976,748.322571 739.862244,748.256714 741.000732,748.576477 
	C742.054810,753.485840 743.239380,753.910217 746.792114,751.552673 
	C748.166626,750.640686 750.043640,750.091492 751.701904,750.066895 
	C761.039795,749.928284 770.383545,750.114380 779.717896,749.887634 
	C781.282654,749.849548 782.798279,748.307007 784.360229,747.505859 
	C786.287231,746.517578 788.211060,744.832642 790.185181,744.758850 
	C795.706177,744.552551 801.251038,745.114380 806.789062,745.199585 
	C813.408386,745.301453 820.030457,745.223633 826.651367,745.223633 
	C826.833679,745.659119 827.015991,746.094543 827.198303,746.530029 
	C826.129272,747.520874 825.217163,748.848938 823.959412,749.434021 
	C821.120300,750.754700 818.188843,752.210449 815.150330,752.684387 
	C811.299866,753.284912 810.334839,755.011780 812.136230,759.420837 
	C805.536194,759.855286 799.640198,760.243408 793.132324,760.671753 
	C793.307312,759.198486 793.392761,757.966553 793.613647,756.759338 
	C793.851807,755.457581 794.490845,754.169189 794.445984,752.892883 
	C794.404236,751.706116 793.821228,750.464050 793.184692,749.425171 
	C793.027100,749.167908 791.291382,749.343811 791.047119,749.764832 
	C789.925476,751.698242 788.293335,753.784546 788.281006,755.824585 
	C788.249512,761.035828 785.578064,763.464050 780.639038,762.063232 
	C778.686218,761.509399 776.639526,761.286560 773.562134,760.712891 
	C776.224976,766.955200 773.361450,770.050598 770.859436,771.690369 
	C764.838684,770.268311 760.060364,769.015930 755.225708,768.044312 
	C752.327271,767.461914 749.323059,766.931274 746.397766,767.064819 
	C741.624207,767.282837 736.848999,767.908264 732.141052,768.738892 
	C731.225220,768.900452 730.613037,770.783264 729.898438,771.817688 
	C733.461731,774.689819 738.911621,770.423767 741.078979,775.878174 
	C736.880859,778.019836 733.088623,780.447205 729.491577,774.490295 
	C729.106873,777.548157 728.866089,779.461487 728.576111,781.766663 
	C720.766724,782.199036 713.117981,782.622498 704.714478,783.087769 
	C706.118347,781.906067 707.430237,781.281860 707.922974,780.261902 
	C708.500488,779.066467 708.749023,777.427124 708.422241,776.166443 
	C708.141846,775.084839 706.666626,773.355225 706.035889,773.482178 
	C702.704407,774.153015 699.211243,774.843811 696.281555,776.452026 
	C693.440308,778.011597 691.361938,778.933960 688.883423,776.125488 
	C688.377686,775.552429 686.601929,775.339294 685.960327,775.772705 
	C682.262329,778.270691 679.847534,777.119873 678.286499,773.397034 
	C673.781494,774.427185 669.484802,775.409729 664.576355,776.532104 
	C665.698914,777.816101 665.948425,778.340149 666.353394,778.526611 
	C669.330750,779.897583 672.607117,781.120972 667.780518,784.400757 
	C667.440918,784.631409 667.083008,785.356201 667.204529,785.667358 
	C669.721191,792.112000 665.418274,791.789124 661.155457,792.266479 
	C658.450073,792.569519 655.466187,793.833618 654.419128,790.609741 
	C653.999451,789.317505 656.385315,787.129395 657.442444,785.318787 
	C657.548767,785.136719 657.295288,784.744690 657.116089,784.134521 
	C649.625305,784.755981 642.083313,785.381714 634.541321,786.007385 
	C634.562744,786.683289 634.584167,787.359253 634.605591,788.035156 
	C636.140808,787.901917 638.038818,787.121338 639.150330,787.744202 
	C644.877747,790.953552 650.403442,794.522888 655.999573,797.966553 
M163.993301,814.422119 
	C165.601578,814.749268 168.250992,815.797729 168.619553,815.265808 
	C169.652039,813.775696 169.742569,811.632935 170.204773,809.747742 
	C169.825623,809.573059 169.446487,809.398438 169.067352,809.223816 
	C167.483032,811.112305 161.977036,807.642822 163.993301,814.422119 
M356.045990,817.164856 
	C355.101624,817.674316 354.157227,818.183716 353.212830,818.693115 
	C354.198639,819.357361 355.184418,820.021667 356.170197,820.685974 
	C356.346313,819.611328 356.522461,818.536621 356.045990,817.164856 
M652.361633,770.719421 
	C653.665894,770.815735 654.970215,770.912109 656.274475,771.008423 
	C656.219727,770.285645 656.165039,769.562866 656.110352,768.840088 
	C654.938538,769.257446 653.766663,769.674866 652.361633,770.719421 
M769.160706,757.538879 
	C771.869141,759.042297 771.869141,759.042297 772.638000,754.893860 
	C771.225159,755.717834 770.253479,756.284485 769.160706,757.538879 
M387.796844,818.510681 
	C386.803741,818.135864 385.810608,817.761047 384.817535,817.386169 
	C384.660461,817.947388 384.503357,818.508545 384.346252,819.069763 
	C385.436249,819.119141 386.526276,819.168518 387.796844,818.510681 
M335.159882,831.136902 
	C335.256012,832.294067 335.352142,833.451233 335.448303,834.608398 
	C336.108459,834.447266 336.768616,834.286133 337.428802,834.125061 
	C336.800598,832.941833 336.172424,831.758667 335.159882,831.136902 
M691.696350,770.355469 
	C691.349487,771.064270 691.002625,771.773132 690.655762,772.481873 
	C691.091187,772.569519 691.526550,772.657166 691.962036,772.744873 
	C692.087341,771.983521 692.212708,771.222229 691.696350,770.355469 
M714.799622,769.396240 
	C714.795349,769.787354 714.791077,770.178467 714.786804,770.569519 
	C714.949097,770.571106 715.252441,770.583618 715.253235,770.572693 
	C715.283386,770.183533 715.285156,769.792175 714.799622,769.396240 
M276.294128,845.436768 
	C276.010803,845.707031 275.727478,845.977295 275.444214,846.247559 
	C275.556244,846.364807 275.759552,846.590149 275.767212,846.583740 
	C276.066010,846.331482 276.347015,846.058167 276.294128,845.436768 
z"/>
<path fill="#F9830F" opacity="1.000000" stroke="none" 
	d="
M494.005524,201.233307 
	C497.173004,201.893127 500.340515,202.552963 503.762573,203.782974 
	C498.216980,209.554184 503.412018,212.131943 506.951111,214.932922 
	C506.304047,215.955688 505.484619,216.663330 505.526428,217.315811 
	C505.597656,218.428543 506.209656,219.506607 506.594482,220.599243 
	C507.385315,219.767059 508.749603,219.009476 508.869202,218.089996 
	C509.432983,213.755157 509.655701,209.375977 510.000092,205.012604 
	C514.845581,206.032654 519.691101,207.052704 524.789673,208.630325 
	C523.744385,210.062164 522.483765,211.000443 521.138489,211.795364 
	C519.224792,212.926132 516.783997,213.538467 515.392212,215.104446 
	C512.070923,218.841553 509.231964,223.007294 505.844635,227.465256 
	C508.058319,227.465256 509.801147,227.465256 512.680908,227.465256 
	C510.103668,230.225449 508.233643,232.228195 506.169312,234.439026 
	C513.411255,235.511093 518.843323,233.558365 523.284668,228.437393 
	C524.035828,227.571259 526.185608,227.605789 527.648071,227.725693 
	C532.604797,228.132111 537.657898,229.652191 542.452576,229.032394 
	C546.397339,228.522461 550.503113,226.155884 553.671021,223.556213 
	C557.294006,220.583099 559.007446,223.937698 561.531738,224.691223 
	C560.663696,226.145294 559.933594,227.707275 558.898376,229.030533 
	C556.870056,231.623260 554.671570,234.082932 552.543457,236.597656 
	C552.801392,237.108383 553.059326,237.619125 553.317261,238.129852 
	C556.484070,238.481155 559.650940,238.832443 562.814697,239.183411 
	C565.085449,244.313599 567.554626,249.892090 570.242676,255.965057 
	C570.065186,256.362427 569.533203,257.553711 568.614929,258.764771 
	C564.152466,257.836578 560.076233,256.888641 555.999878,255.547699 
	C555.860168,253.914764 555.720581,252.674820 555.466797,250.421021 
	C552.800354,252.093460 550.803955,253.345657 548.394470,254.581329 
	C545.321716,253.968735 542.661926,253.372681 539.988159,252.402328 
	C538.194519,248.579437 536.168396,247.411682 533.234863,251.327148 
	C525.584412,249.808456 518.291077,248.301132 510.942688,246.437485 
	C508.551147,244.620102 506.214722,243.159027 503.206726,241.278000 
	C503.086945,239.366928 502.905182,236.466965 502.732056,233.704865 
	C498.624817,234.685455 494.707916,235.163071 491.204010,236.628250 
	C489.093048,237.510941 487.624603,239.930130 485.440613,241.637756 
	C483.544952,241.333282 482.071838,241.070206 480.607849,240.763657 
	C400.277161,223.942978 319.955231,207.079895 239.605804,190.349228 
	C230.665085,188.487549 222.065979,189.571793 214.500122,196.021820 
	C211.614014,198.797897 209.042938,201.478119 206.078217,204.119415 
	C204.561447,204.230576 203.438324,204.380661 201.937317,204.581238 
	C202.883759,206.155762 203.456039,207.107849 204.007843,208.416077 
	C203.875549,209.475937 203.763748,210.179657 203.434052,211.141876 
	C202.897964,212.934128 202.579788,214.467896 202.143311,216.322845 
	C202.045654,217.095520 202.066284,217.547012 201.979523,218.405762 
	C201.767471,220.206680 201.662842,221.600372 201.195312,223.006226 
	C198.444077,223.170135 195.054260,222.380997 193.858856,223.653442 
	C190.534485,227.192062 184.765121,228.674011 185.216888,235.753357 
	C185.633514,242.282364 183.521942,248.936218 183.008942,255.572586 
	C182.601532,260.843140 182.926865,266.170349 182.926865,271.680481 
	C172.546936,267.594208 168.770370,268.957306 168.219788,276.732147 
	C164.794083,277.293610 163.716034,275.821747 164.263245,272.524109 
	C164.814102,269.204590 165.156036,265.850372 165.603500,262.403564 
	C160.768448,262.701508 158.978165,265.156006 158.981918,269.298065 
	C158.984787,272.465820 157.693146,274.423615 154.062073,273.531586 
	C154.026581,263.048035 154.073868,253.026260 154.480988,242.951569 
	C155.876785,240.480957 157.845169,238.038834 157.782516,235.649948 
	C157.548157,226.712799 156.718597,217.786911 155.924576,208.873505 
	C155.805420,207.535919 154.686081,206.287445 153.941620,204.587555 
	C153.909103,202.785660 153.964355,201.393982 154.362518,199.939117 
	C156.651184,198.217117 156.756516,196.869537 153.974945,195.578064 
	C154.260971,192.439606 154.621521,189.720734 155.367447,186.991943 
	C159.101288,185.023773 161.789032,176.497879 160.059418,173.219971 
	C159.936066,172.986160 159.503677,172.915421 159.285126,172.390045 
	C162.644958,166.871185 165.934677,161.731140 169.622498,156.690781 
	C173.418228,155.936951 175.727753,154.137573 175.857880,150.023987 
	C182.448563,144.360504 189.661041,140.590057 198.305878,138.989166 
	C199.785385,138.395432 200.894485,137.787582 202.003601,137.179749 
	C216.451996,135.148712 229.962616,139.749313 243.701736,142.949768 
	C322.756866,161.365265 401.831940,179.695145 480.898987,198.059540 
	C481.708038,198.247467 482.499847,198.509598 483.587341,199.240341 
	C481.916107,201.019669 479.957184,202.295731 476.817780,204.340775 
	C480.101318,206.436157 483.242096,209.773880 484.774078,209.151520 
	C488.406982,207.675644 494.362549,207.708221 494.005524,201.233307 
M564.563293,252.294083 
	C564.293030,252.010773 564.022766,251.727463 563.752441,251.444122 
	C563.635132,251.556168 563.409790,251.759460 563.416260,251.767090 
	C563.668518,252.065887 563.941833,252.346909 564.563293,252.294083 
z"/>
<path fill="#195A92" opacity="1.000000" stroke="none" 
	d="
M197.935486,138.975067 
	C189.661041,140.590057 182.448563,144.360504 175.542389,150.175797 
	C173.104599,152.589569 171.164490,154.590332 169.224380,156.591095 
	C165.934677,161.731140 162.644958,166.871185 159.099014,172.666306 
	C157.555878,177.881546 156.268967,182.441696 154.982056,187.001862 
	C154.621521,189.720734 154.260971,192.439606 153.880096,195.971832 
	C153.913071,197.857544 153.966339,198.929916 154.019623,200.002289 
	C153.964355,201.393982 153.909103,202.785660 153.851349,205.049164 
	C153.939621,218.282150 154.030380,230.643326 154.121140,243.004486 
	C154.073868,253.026260 154.026581,263.048035 153.975296,273.993896 
	C153.970627,319.342285 153.946960,363.766602 153.977341,408.190826 
	C153.997833,438.135315 154.094620,468.079742 154.074829,498.483154 
	C153.907974,503.981293 153.823547,509.020477 153.287140,514.042542 
	C137.386292,513.697205 121.937416,513.368958 106.488556,513.040710 
	C106.406311,509.719055 106.253334,506.397430 106.252106,503.075745 
	C106.215538,404.110718 106.196678,305.145691 106.168427,206.180649 
	C106.160316,177.770126 127.161461,150.106125 153.401138,144.661636 
	C166.263870,141.992737 179.306000,140.182510 192.280029,138.063828 
	C193.893463,137.800354 195.587509,138.030533 197.660156,138.297913 
	C198.076126,138.563843 197.935486,138.975067 197.935486,138.975067 
z"/>
<path fill="#053A6C" opacity="1.000000" stroke="none" 
	d="
M106.396713,513.498840 
	C121.937416,513.368958 137.386292,513.697205 153.371109,514.497681 
	C153.921051,554.761108 153.910767,594.552368 153.958969,634.343567 
	C153.984177,655.147400 154.112183,675.951111 154.193756,696.754883 
	C154.153320,730.106995 154.108932,763.459106 154.089020,796.811218 
	C154.088333,797.963135 154.332352,799.115112 154.612518,801.030640 
	C155.160477,803.533203 155.558212,805.272339 155.955963,807.011414 
	C156.048859,807.873779 156.141769,808.736145 156.439240,810.181274 
	C156.903885,811.551453 157.163940,812.338867 157.424011,813.126343 
	C158.872864,816.891541 160.321732,820.656738 162.055359,825.041504 
	C165.568497,830.105591 168.796860,834.550171 172.149750,839.304688 
	C179.849289,847.952637 189.638504,852.738281 199.869446,856.815308 
	C191.344025,855.503235 182.823181,854.160461 174.291092,852.893188 
	C170.504440,852.330811 166.692551,851.940430 162.896454,851.439026 
	C130.780075,847.197021 106.344048,819.904541 106.277252,787.390015 
	C106.113968,707.909729 106.241859,628.428894 106.257385,548.948242 
	C106.259666,537.284485 106.288383,525.620728 106.396713,513.498840 
z"/>
<path fill="#FA8611" opacity="1.000000" stroke="none" 
	d="
M569.001221,258.744995 
	C569.533203,257.553711 570.065186,256.362427 570.242676,255.965057 
	C567.554626,249.892090 565.085449,244.313599 562.814697,239.183411 
	C559.650940,238.832443 556.484070,238.481155 553.317261,238.129852 
	C553.059326,237.619125 552.801392,237.108383 552.543457,236.597656 
	C554.671570,234.082932 556.870056,231.623260 558.898376,229.030533 
	C559.933594,227.707275 560.663696,226.145294 561.531738,224.691223 
	C559.007446,223.937698 557.294006,220.583099 553.671021,223.556213 
	C550.503113,226.155884 546.397339,228.522461 542.452576,229.032394 
	C537.657898,229.652191 532.604797,228.132111 527.648071,227.725693 
	C526.185608,227.605789 524.035828,227.571259 523.284668,228.437393 
	C518.843323,233.558365 513.411255,235.511093 506.169312,234.439026 
	C508.233643,232.228195 510.103668,230.225449 512.680908,227.465256 
	C509.801147,227.465256 508.058319,227.465256 505.844635,227.465256 
	C509.231964,223.007294 512.070923,218.841553 515.392212,215.104446 
	C516.783997,213.538467 519.224792,212.926132 521.138489,211.795364 
	C522.483765,211.000443 523.744385,210.062164 525.125122,208.783539 
	C557.804993,215.782715 590.402039,223.188614 623.000305,230.589355 
	C710.261902,250.400253 797.516174,270.243073 884.797791,289.965515 
	C893.514343,291.935120 901.099609,295.575806 907.064636,302.589111 
	C903.683655,305.865295 902.542053,310.753021 897.709839,312.020905 
	C897.002930,312.206390 896.327393,313.868134 896.312622,314.856812 
	C896.302856,315.513855 897.594421,316.836243 898.132996,316.753326 
	C902.469421,316.085876 903.535034,319.578400 905.528259,322.067902 
	C906.643677,323.461029 908.296692,324.423615 909.707458,325.580200 
	C911.144409,323.789642 912.525330,321.949921 914.037537,320.225311 
	C915.102051,319.011169 916.345093,317.953461 917.508423,316.825928 
	C922.201111,324.628937 924.232788,333.182770 924.225647,342.598999 
	C919.329956,347.098572 914.719177,351.036407 910.494507,355.352264 
	C908.876892,357.004852 907.561340,359.406738 907.115784,361.665894 
	C905.910217,367.778473 903.748657,369.468750 897.744995,367.537354 
	C896.992798,358.083160 896.340515,349.088531 896.083008,340.018982 
	C900.249329,335.141144 900.103943,327.398743 895.395935,320.184174 
	C892.256714,321.981750 888.979980,323.858063 885.376831,325.573303 
	C877.256897,319.836975 868.058899,319.107880 858.620972,317.828033 
	C855.215698,317.023895 852.225769,316.124542 849.178528,315.509491 
	C785.275635,302.612091 721.360046,289.777710 657.460938,276.861694 
	C627.959045,270.898499 598.486877,264.788452 569.001221,258.744995 
z"/>
<path fill="#F56503" opacity="1.000000" stroke="none" 
	d="
M656.430603,798.018799 
	C650.403442,794.522888 644.877747,790.953552 639.150330,787.744202 
	C638.038818,787.121338 636.140808,787.901917 634.605591,788.035156 
	C634.584167,787.359253 634.562744,786.683289 634.541321,786.007385 
	C642.083313,785.381714 649.625305,784.755981 657.116089,784.134521 
	C657.295288,784.744690 657.548767,785.136719 657.442444,785.318787 
	C656.385315,787.129395 653.999451,789.317505 654.419128,790.609741 
	C655.466187,793.833618 658.450073,792.569519 661.155457,792.266479 
	C665.418274,791.789124 669.721191,792.112000 667.204529,785.667358 
	C667.083008,785.356201 667.440918,784.631409 667.780518,784.400757 
	C672.607117,781.120972 669.330750,779.897583 666.353394,778.526611 
	C665.948425,778.340149 665.698914,777.816101 664.576355,776.532104 
	C669.484802,775.409729 673.781494,774.427185 678.286499,773.397034 
	C679.847534,777.119873 682.262329,778.270691 685.960327,775.772705 
	C686.601929,775.339294 688.377686,775.552429 688.883423,776.125488 
	C691.361938,778.933960 693.440308,778.011597 696.281555,776.452026 
	C699.211243,774.843811 702.704407,774.153015 706.035889,773.482178 
	C706.666626,773.355225 708.141846,775.084839 708.422241,776.166443 
	C708.749023,777.427124 708.500488,779.066467 707.922974,780.261902 
	C707.430237,781.281860 706.118347,781.906067 704.714478,783.087769 
	C713.117981,782.622498 720.766724,782.199036 728.576111,781.766663 
	C728.866089,779.461487 729.106873,777.548157 729.491577,774.490295 
	C733.088623,780.447205 736.880859,778.019836 741.078979,775.878174 
	C738.911621,770.423767 733.461731,774.689819 729.898438,771.817688 
	C730.613037,770.783264 731.225220,768.900452 732.141052,768.738892 
	C736.848999,767.908264 741.624207,767.282837 746.397766,767.064819 
	C749.323059,766.931274 752.327271,767.461914 755.225708,768.044312 
	C760.060364,769.015930 764.838684,770.268311 770.859436,771.690369 
	C773.361450,770.050598 776.224976,766.955200 773.562134,760.712891 
	C776.639526,761.286560 778.686218,761.509399 780.639038,762.063232 
	C785.578064,763.464050 788.249512,761.035828 788.281006,755.824585 
	C788.293335,753.784546 789.925476,751.698242 791.047119,749.764832 
	C791.291382,749.343811 793.027100,749.167908 793.184692,749.425171 
	C793.821228,750.464050 794.404236,751.706116 794.445984,752.892883 
	C794.490845,754.169189 793.851807,755.457581 793.613647,756.759338 
	C793.392761,757.966553 793.307312,759.198486 793.132324,760.671753 
	C799.640198,760.243408 805.536194,759.855286 812.136230,759.420837 
	C810.334839,755.011780 811.299866,753.284912 815.150330,752.684387 
	C818.188843,752.210449 821.120300,750.754700 823.959412,749.434021 
	C825.217163,748.848938 826.129272,747.520874 827.198303,746.530029 
	C827.015991,746.094543 826.833679,745.659119 826.651367,745.223633 
	C820.030457,745.223633 813.408386,745.301453 806.789062,745.199585 
	C801.251038,745.114380 795.706177,744.552551 790.185181,744.758850 
	C788.211060,744.832642 786.287231,746.517578 784.360229,747.505859 
	C782.798279,748.307007 781.282654,749.849548 779.717896,749.887634 
	C770.383545,750.114380 761.039795,749.928284 751.701904,750.066895 
	C750.043640,750.091492 748.166626,750.640686 746.792114,751.552673 
	C743.239380,753.910217 742.054810,753.485840 741.374756,748.466064 
	C742.497925,747.785461 743.248352,747.600830 744.259033,747.497925 
	C745.023804,747.411621 745.528320,747.243530 746.406982,747.134766 
	C747.526245,747.083191 748.271423,746.972412 749.259460,746.906372 
	C749.502380,746.951111 749.966064,746.780823 750.310852,746.830811 
	C751.101990,746.768860 751.548401,746.656860 752.395996,746.585205 
	C783.854614,743.073853 814.918213,739.576050 845.966003,735.942078 
	C857.343079,734.610474 868.682495,732.956055 880.418213,731.621704 
	C884.922852,735.434570 889.064941,739.055847 893.169189,742.719543 
	C898.048523,747.075134 901.185425,753.870300 909.056396,754.016479 
	C902.118225,762.046814 893.245605,765.782166 882.775146,767.168213 
	C840.731567,772.734009 798.739441,778.687927 756.722595,784.456665 
	C723.439941,789.026306 690.148926,793.535156 656.430603,798.018799 
z"/>
<path fill="#F66803" opacity="1.000000" stroke="none" 
	d="
M909.361938,753.880371 
	C901.185425,753.870300 898.048523,747.075134 893.169189,742.719543 
	C889.064941,739.055847 884.922852,735.434570 880.727051,731.421448 
	C887.889160,727.423218 892.975098,721.920227 895.658386,713.838379 
	C896.502380,709.625244 897.681824,705.711182 897.694580,701.793274 
	C897.797913,669.995178 897.638489,638.196289 897.648743,606.397644 
	C897.656372,582.931152 897.798462,559.464661 898.353821,535.995850 
	C907.249634,536.319458 915.672302,536.645386 924.094910,536.971375 
	C924.247864,552.097961 924.505920,567.224365 924.533875,582.351196 
	C924.615173,626.257690 924.632263,670.164368 924.614197,714.070984 
	C924.608032,729.137512 919.643433,742.401184 909.361938,753.880371 
z"/>
<path fill="#F98717" opacity="1.000000" stroke="none" 
	d="
M924.206116,536.515869 
	C915.672302,536.645386 907.249634,536.319458 898.254761,535.535889 
	C897.664368,496.668335 897.622131,458.258362 897.639099,419.848389 
	C897.646790,402.564514 897.772644,385.280731 897.844849,367.996887 
	C903.748657,369.468750 905.910217,367.778473 907.115784,361.665894 
	C907.561340,359.406738 908.876892,357.004852 910.494507,355.352264 
	C914.719177,351.036407 919.329956,347.098572 924.121460,342.992401 
	C924.556763,344.627167 924.745911,346.279633 924.744934,347.931946 
	C924.719238,392.345520 924.698608,436.759125 924.619812,481.172638 
	C924.587341,499.468689 924.422180,517.764465 924.206116,536.515869 
z"/>
<path fill="#F56503" opacity="1.000000" stroke="none" 
	d="
M339.517059,841.255859 
	C339.297485,839.764587 339.633575,838.322876 339.714386,836.867065 
	C339.869965,834.065247 340.364136,831.158752 339.827606,828.473633 
	C339.182709,825.246277 340.217896,823.536072 343.438232,823.600769 
	C345.293304,823.638062 347.200897,822.528503 349.018677,822.688232 
	C355.225800,823.233765 361.830627,823.068970 367.396088,825.345337 
	C369.843842,826.346558 372.748138,827.855835 375.233032,828.246094 
	C383.502563,829.544678 392.030609,830.864258 400.214661,825.151367 
	C397.440369,823.118774 394.907471,821.263000 392.374542,819.407288 
	C392.503387,818.879883 392.632202,818.352478 392.761047,817.825134 
	C395.156921,818.368408 397.876434,818.377747 399.869354,819.585815 
	C402.546173,821.208435 404.561584,821.491516 407.058228,819.502808 
	C410.488708,816.770081 413.158173,817.981873 416.027008,820.973450 
	C417.517731,822.528137 420.304962,823.408203 422.563385,823.528809 
	C426.241943,823.725342 430.026093,823.334961 433.640472,822.587097 
	C434.901215,822.326111 436.419342,820.390137 436.673035,819.008484 
	C436.923187,817.646362 435.721680,816.017639 434.866699,813.728455 
	C440.234467,811.542358 445.212524,808.035156 450.352539,807.779236 
	C457.512634,807.422607 464.897644,809.053894 471.982910,810.706665 
	C476.001892,811.644104 479.286102,812.536194 483.782898,811.585754 
	C491.699829,809.912476 500.075317,810.370789 508.263611,810.066895 
	C509.303680,810.028320 510.376404,810.763367 511.427551,811.157166 
	C512.683044,811.627563 513.931641,812.116577 515.183167,812.597595 
	C515.221191,811.206909 515.494690,809.774414 515.256531,808.432739 
	C514.192505,802.438049 515.645691,800.577881 521.659058,799.975159 
	C526.242249,799.515808 530.886414,797.883484 535.331360,798.364258 
	C539.208557,798.783691 543.126099,800.996765 546.509827,803.207214 
	C549.938843,805.447510 552.738098,807.252808 556.818054,804.552307 
	C558.195312,803.640625 560.556641,804.215698 563.077454,804.078003 
	C562.646973,806.477356 562.337158,808.204102 562.016113,810.313354 
	C529.857849,815.103699 497.705627,819.473633 465.565247,823.929077 
	C425.676270,829.458679 385.797394,835.061279 345.912750,840.622009 
	C343.934601,840.897827 341.942841,841.075623 339.517059,841.255859 
z"/>
<path fill="#F56503" opacity="1.000000" stroke="none" 
	d="
M200.256042,856.981323 
	C189.638504,852.738281 179.849289,847.952637 172.478668,839.307434 
	C173.121628,839.000122 173.560211,839.000061 173.998779,839.000000 
	C177.347321,839.323669 181.386749,836.929077 183.707916,841.290771 
	C184.603943,842.974487 185.133179,844.853394 186.048203,847.205505 
	C194.550613,842.221252 200.969345,847.770935 208.065414,851.861206 
	C209.545456,850.883728 211.154312,849.821167 212.740753,848.773376 
	C209.295181,842.598755 210.249863,841.245972 217.488205,840.945984 
	C219.829102,840.848877 222.143661,840.117249 224.875793,839.598938 
	C224.613647,840.460449 224.204361,841.158813 224.235626,841.836792 
	C224.301758,843.271545 224.597855,844.695679 224.799622,846.124146 
	C226.004059,845.851990 227.297623,845.772278 228.393158,845.264893 
	C230.300964,844.381409 232.086639,843.234192 234.793076,841.706665 
	C234.123749,843.746704 233.727539,844.954285 233.158554,846.688477 
	C234.390671,847.423096 235.723129,848.217529 237.222122,849.111267 
	C238.417648,847.559265 239.306931,846.246887 240.360184,845.082764 
	C241.370377,843.966370 242.550613,843.003845 244.376251,841.302551 
	C244.376251,843.594238 244.376251,844.917236 244.376251,845.931396 
	C247.918396,846.275391 251.307327,847.009705 254.645187,846.824341 
	C258.655273,846.601501 262.721771,845.941040 266.577515,844.825806 
	C270.019165,843.830322 272.399353,845.253296 272.989929,849.993408 
	C253.924652,853.172546 234.893539,856.169189 215.782272,858.511780 
	C210.865341,859.114380 205.695999,857.657898 200.256042,856.981323 
z"/>
<path fill="#F56503" opacity="1.000000" stroke="none" 
	d="
M595.447571,806.180664 
	C594.712036,804.704468 594.420410,803.280151 594.028503,801.366150 
	C597.384155,800.858948 600.477478,800.391479 603.914185,799.872070 
	C603.143188,797.878784 602.587708,796.442627 602.032227,795.006409 
	C602.493896,794.570129 602.955627,794.133850 603.417297,793.697571 
	C604.677124,795.201294 605.937012,796.705017 607.403809,798.455750 
	C609.186279,795.319214 611.330933,794.873169 615.121460,797.027405 
	C617.197571,798.207397 621.015137,796.504028 623.998108,795.868774 
	C629.498901,794.697510 634.918213,792.700256 640.458984,792.318970 
	C644.033875,792.072937 645.656067,795.190796 644.014160,799.315918 
	C627.967346,801.862915 611.929382,804.047791 595.447571,806.180664 
z"/>
<path fill="#F56503" opacity="1.000000" stroke="none" 
	d="
M293.399780,847.713379 
	C292.213623,846.148987 291.434082,844.632202 290.485504,842.786377 
	C291.355713,842.357910 292.438660,841.824768 293.695740,841.205811 
	C293.127075,839.863708 292.576263,838.563782 292.024963,837.262695 
	C295.897217,835.618713 295.897217,835.618713 298.231873,840.145203 
	C301.417236,837.469971 304.745636,836.318909 308.225616,839.786438 
	C308.764648,840.323669 310.628052,840.101501 311.537506,839.604980 
	C317.488312,836.356079 323.107452,839.729797 328.848602,840.334595 
	C329.275879,840.379578 329.613312,841.277039 330.058594,842.202148 
	C318.018585,844.337708 305.912506,846.049316 293.399780,847.713379 
z"/>
<path fill="#F98717" opacity="1.000000" stroke="none" 
	d="
M917.398193,316.479980 
	C916.345093,317.953461 915.102051,319.011169 914.037537,320.225311 
	C912.525330,321.949921 911.144409,323.789642 909.707458,325.580200 
	C908.296692,324.423615 906.643677,323.461029 905.528259,322.067902 
	C903.535034,319.578400 902.469421,316.085876 898.132996,316.753326 
	C897.594421,316.836243 896.302856,315.513855 896.312622,314.856812 
	C896.327393,313.868134 897.002930,312.206390 897.709839,312.020905 
	C902.542053,310.753021 903.683655,305.865295 907.238159,302.888000 
	C910.814697,307.185425 914.051331,311.659729 917.398193,316.479980 
z"/>
<path fill="#F56503" opacity="1.000000" stroke="none" 
	d="
M581.426941,808.110474 
	C580.434509,803.637634 579.868591,799.218933 579.301147,794.788513 
	C583.506592,793.281799 587.565430,789.391235 591.888489,795.486511 
	C589.974365,796.253174 588.249329,796.944153 585.281616,798.132874 
	C587.681641,800.933716 589.813416,803.421631 592.065552,806.290894 
	C588.741699,807.169739 585.297607,807.667175 581.426941,808.110474 
z"/>
<path fill="#FB8612" opacity="1.000000" stroke="none" 
	d="
M493.644135,201.085114 
	C494.362549,207.708221 488.406982,207.675644 484.774078,209.151520 
	C483.242096,209.773880 480.101318,206.436157 476.817780,204.340775 
	C479.957184,202.295731 481.916107,201.019669 483.936157,199.403625 
	C487.092468,199.688065 490.187622,200.312500 493.644135,201.085114 
z"/>
<path fill="#FA8611" opacity="1.000000" stroke="none" 
	d="
M509.670319,204.828979 
	C509.655701,209.375977 509.432983,213.755157 508.869202,218.089996 
	C508.749603,219.009476 507.385315,219.767059 506.594482,220.599243 
	C506.209656,219.506607 505.597656,218.428543 505.526428,217.315811 
	C505.484619,216.663330 506.304047,215.955688 506.951111,214.932922 
	C503.412018,212.131943 498.216980,209.554184 504.080750,203.968002 
	C505.876404,203.937027 507.608490,204.291183 509.670319,204.828979 
z"/>
<path fill="#F56503" opacity="1.000000" stroke="none" 
	d="
M333.378632,842.107239 
	C333.303894,840.114075 333.607452,838.180298 333.910980,836.246582 
	C334.534973,836.324646 335.158936,836.402771 335.782898,836.480835 
	C335.855957,837.978394 335.929016,839.475891 336.002502,841.367065 
	C335.254242,841.895996 334.505585,842.031311 333.378632,842.107239 
z"/>
<path fill="#F18117" opacity="1.000000" stroke="none" 
	d="
M198.305878,138.989166 
	C197.935486,138.975067 198.076126,138.563843 198.119781,138.350952 
	C199.213654,137.773926 200.263885,137.409790 201.658859,137.112686 
	C200.894485,137.787582 199.785385,138.395432 198.305878,138.989166 
z"/>
<path fill="#033C6D" opacity="1.000000" stroke="none" 
	d="
M201.666931,772.990417 
	C201.689011,739.911133 201.711075,706.831787 201.751480,672.948303 
	C201.782440,636.057678 201.822968,599.971313 201.796829,563.884888 
	C201.782150,543.602905 201.657303,523.321106 201.681046,502.575989 
	C201.799286,437.372437 201.804016,372.632111 201.846191,307.891785 
	C201.859848,286.927765 201.971588,265.963776 202.394196,244.928894 
	C204.456345,242.953064 205.060349,241.210098 201.950287,239.670502 
	C201.921387,238.893753 201.978363,238.446732 202.426910,237.904770 
	C203.212357,234.667053 203.566315,231.518570 204.015717,228.383759 
	C204.268112,226.623230 204.064667,224.195694 205.122040,223.254883 
	C210.080627,218.842865 215.828979,215.341614 219.472748,209.466599 
	C220.110886,208.437683 222.447296,208.462067 224.060394,208.353531 
	C225.587433,209.888443 227.053482,211.069809 228.280411,212.506317 
	C226.308197,215.171265 224.575104,217.581100 222.478394,219.985992 
	C220.891632,219.812454 219.668503,219.643860 218.292725,219.454208 
	C217.577179,223.309006 218.559998,225.618073 222.569611,226.482986 
	C222.730316,228.597748 222.806274,230.262253 222.806671,231.926773 
	C222.843109,385.036987 222.862732,538.147217 222.914871,691.257446 
	C222.924347,719.078613 223.065094,746.899841 222.991409,775.041504 
	C221.994598,776.127747 221.151627,776.893433 220.308640,777.659180 
	C220.853928,777.646301 221.399200,777.633484 221.944489,777.620667 
	C222.535141,781.513306 224.398041,785.778992 223.393723,789.203918 
	C222.144241,793.464783 218.426987,796.893188 213.063431,796.978760 
	C213.031494,796.986450 213.033798,796.920898 212.986725,796.588135 
	C211.107758,794.502380 209.275833,792.749451 207.262390,790.698425 
	C206.350922,789.267090 205.620972,788.133728 204.910889,786.618896 
	C203.842819,781.821655 202.754868,777.406067 201.666931,772.990417 
z"/>
<path fill="#F26404" opacity="1.000000" stroke="none" 
	d="
M201.582092,503.039215 
	C201.657303,523.321106 201.782150,543.602905 201.796829,563.884888 
	C201.822968,599.971313 201.782440,636.057678 201.670929,672.528992 
	C200.740707,673.559082 199.229523,674.160950 199.185196,674.856323 
	C198.818924,680.602478 198.649033,686.365051 198.574493,692.124634 
	C198.526138,695.859741 198.938019,699.605957 198.795990,703.333984 
	C198.269409,717.154541 197.855270,730.989746 196.771057,744.770081 
	C196.547104,747.616577 193.626816,750.250977 191.354446,753.951843 
	C187.835876,749.831909 184.669235,746.619873 182.088501,742.991089 
	C177.732834,736.866699 174.716812,736.640015 170.316849,742.528015 
	C168.889893,744.437622 167.485031,746.453674 165.680984,747.952881 
	C164.798172,748.686462 163.024063,748.347595 161.036957,748.559998 
	C163.283234,754.027710 163.169830,759.370361 160.187622,765.154663 
	C156.079971,752.954468 157.233719,746.664307 163.622650,744.229492 
	C163.673080,743.907959 163.810532,743.320923 163.753189,743.301208 
	C156.750305,740.896667 158.457169,734.735901 158.090363,729.685852 
	C157.530762,721.981262 156.938644,714.216309 157.353836,706.530701 
	C157.555710,702.794006 159.894928,699.204163 154.602905,696.846191 
	C154.112183,675.951111 153.984177,655.147400 153.958969,634.343567 
	C153.910767,594.552368 153.921051,554.761108 153.823090,514.514771 
	C153.823547,509.020477 153.907974,503.981293 154.502167,498.479431 
	C156.493408,498.110779 157.981644,498.144104 159.455292,498.308258 
	C173.498962,499.872589 187.540161,501.459076 201.582092,503.039215 
z"/>
<path fill="#044172" opacity="1.000000" stroke="none" 
	d="
M213.095367,796.971130 
	C218.426987,796.893188 222.144241,793.464783 223.393723,789.203918 
	C224.398041,785.778992 222.535141,781.513306 221.944489,777.620667 
	C221.399200,777.633484 220.853928,777.646301 220.308640,777.659180 
	C221.151627,776.893433 221.994598,776.127747 223.227463,775.302002 
	C227.293747,782.916016 232.523254,785.214111 242.190720,783.772278 
	C249.252823,782.718933 256.353424,781.905579 263.450928,781.111084 
	C285.741913,778.615723 308.040497,776.188782 330.334259,773.718323 
	C353.450836,771.156677 376.562256,768.548279 399.681549,766.011475 
	C416.197205,764.199280 432.726807,762.514465 449.241730,760.695618 
	C472.194611,758.167725 495.133026,755.507141 518.089905,753.016785 
	C538.077148,750.848633 558.086426,748.885193 578.076721,746.744812 
	C601.697083,744.215698 625.307861,741.597046 648.922119,739.011108 
	C666.261719,737.112305 683.595703,735.160828 700.940613,733.311768 
	C717.287476,731.569031 733.645325,729.929565 749.943726,728.590210 
	C745.273621,735.509827 746.061890,738.194336 754.005066,742.274109 
	C753.337708,743.691895 752.666199,745.118408 751.994751,746.544861 
	C751.548401,746.656860 751.101990,746.768860 750.211792,746.697998 
	C749.420898,746.361145 749.170471,746.476624 749.016541,746.861572 
	C748.271423,746.972412 747.526245,747.083191 746.276001,746.912476 
	C745.180176,746.892639 744.589539,747.154419 743.998840,747.416199 
	C743.248352,747.600830 742.497925,747.785461 741.373474,748.080444 
	C739.862244,748.256714 738.724976,748.322571 736.835571,748.522705 
	C696.722473,753.169495 657.361511,757.681885 618.000549,762.194336 
	C616.554321,762.330200 615.108032,762.466125 612.955078,762.705200 
	C611.499084,762.923645 610.749695,763.038818 610.000366,763.154053 
	C609.550293,763.135010 609.100220,763.115906 607.915405,763.146362 
	C584.120544,765.854309 561.060486,768.512695 538.000427,771.171143 
	C537.241455,771.177307 536.482483,771.183472 534.961304,771.263916 
	C523.293518,772.577698 512.381531,773.763916 501.484192,775.072571 
	C491.453735,776.277039 481.439117,777.613159 471.417511,778.891357 
	C471.417511,778.891357 471.267731,778.656677 470.731628,778.652588 
	C469.130463,778.815063 468.065399,778.981628 467.000336,779.148193 
	C466.242584,779.157471 465.484833,779.166748 463.964691,779.249512 
	C452.292633,780.572937 441.375488,781.761353 430.475555,783.091064 
	C420.776550,784.274292 411.096588,785.614136 401.408234,786.884827 
	C397.862671,787.151001 394.317139,787.417175 389.946533,787.770142 
	C370.747040,789.979492 352.372589,792.101990 333.998108,794.224487 
	C333.546387,794.212280 333.094696,794.200134 331.965576,794.259399 
	C329.858826,794.596619 328.429443,794.862488 327.000092,795.128357 
	C325.544464,795.214355 324.088837,795.300293 321.862000,795.520447 
	C301.726685,797.841858 282.362579,800.029053 262.998474,802.216187 
	C261.555969,802.374756 260.113464,802.533386 257.999573,802.781921 
	C256.885529,802.962341 256.442871,803.052795 256.000183,803.143250 
	C255.241364,803.154053 254.482559,803.164917 252.961792,803.250366 
	C242.548676,804.213501 232.929428,807.476868 223.215714,803.714661 
	C223.215714,803.714661 223.116928,803.746338 222.945663,803.501343 
	C219.548050,801.161316 216.321716,799.066223 213.095367,796.971130 
z"/>
<path fill="#F56503" opacity="1.000000" stroke="none" 
	d="
M618.108521,762.567627 
	C657.361511,757.681885 696.722473,753.169495 736.538330,748.697754 
	C737.297363,751.500183 735.799377,752.138672 733.378540,752.006775 
	C729.657410,751.804199 725.814270,751.143555 722.224304,751.792114 
	C714.741394,753.143982 707.394775,755.244995 699.981567,756.992920 
	C698.239197,757.403748 696.229919,758.310913 694.733948,757.814087 
	C691.124084,756.615356 688.615601,757.468689 686.379211,761.383972 
	C680.772034,754.816162 675.313477,760.992004 669.657471,761.162476 
	C662.576355,761.375977 655.513123,762.301453 648.452637,763.021912 
	C645.018860,763.372314 641.420288,763.419006 638.226501,764.542114 
	C631.197083,767.014160 624.861877,763.596497 618.108521,762.567627 
z"/>
<path fill="#F56503" opacity="1.000000" stroke="none" 
	d="
M538.109863,771.552246 
	C561.060486,768.512695 584.120544,765.854309 607.591797,763.250977 
	C604.355164,765.481873 600.884094,768.077515 597.007568,769.710938 
	C593.413635,771.225281 589.397705,771.761536 585.543152,772.618652 
	C584.446411,772.862549 582.982422,773.182739 582.167725,772.683350 
	C577.325500,769.715271 572.998291,770.855957 568.198669,773.147827 
	C565.642090,774.368652 562.191223,773.962708 559.154846,773.882263 
	C552.704163,773.711182 546.259338,773.295166 539.816650,772.903748 
	C539.266602,772.870361 538.750977,772.270325 538.109863,771.552246 
z"/>
<path fill="#F26404" opacity="1.000000" stroke="none" 
	d="
M201.285187,772.992126 
	C202.754868,777.406067 203.842819,781.821655 204.566086,786.625122 
	C203.467621,787.675293 202.733810,788.337646 202.000000,789.000000 
	C198.029099,789.704102 196.572586,792.311951 196.802185,795.411865 
	C191.583221,797.339050 186.748825,799.124268 180.998093,801.247864 
	C183.805649,796.594971 186.181030,792.890991 188.316910,789.053772 
	C190.477554,785.171814 192.514191,781.210693 194.390503,777.184265 
	C195.729675,774.310425 197.542084,772.545471 201.285187,772.992126 
z"/>
<path fill="#F56503" opacity="1.000000" stroke="none" 
	d="
M471.850647,778.939819 
	C481.439117,777.613159 491.453735,776.277039 501.484192,775.072571 
	C512.381531,773.763916 523.293518,772.577698 534.600159,771.387085 
	C528.512024,776.074280 521.456726,778.707275 513.325806,777.634583 
	C512.223999,777.489136 511.032593,777.324463 509.984039,777.581726 
	C499.404633,780.177673 488.654297,781.180969 477.799347,780.905640 
	C475.945801,780.858582 474.121521,779.656677 471.850647,778.939819 
z"/>
<path fill="#F56503" opacity="1.000000" stroke="none" 
	d="
M401.861816,786.939575 
	C411.096588,785.614136 420.776550,784.274292 430.475555,783.091064 
	C441.375488,781.761353 452.292633,780.572937 463.603943,779.371948 
	C462.475922,780.954712 461.211182,783.054871 459.367432,783.917664 
	C453.566101,786.632324 447.583618,787.394592 441.154785,785.404236 
	C438.811951,784.678894 435.788727,786.022888 433.109436,786.583130 
	C432.186890,786.776062 431.357178,787.869141 430.500397,787.850464 
	C421.103668,787.644958 411.709930,787.300781 401.861816,786.939575 
z"/>
<path fill="#F56503" opacity="1.000000" stroke="none" 
	d="
M263.067474,802.591614 
	C282.362579,800.029053 301.726685,797.841858 321.542084,795.696960 
	C321.225769,797.028809 320.740540,799.076843 319.644714,799.484802 
	C312.526154,802.134766 305.363312,804.498413 297.528809,802.012390 
	C292.433624,800.395691 287.588348,800.893921 282.245361,802.964844 
	C277.098267,804.959839 270.945068,804.414612 265.221008,804.788513 
	C264.568634,804.831177 263.833313,803.604919 263.067474,802.591614 
z"/>
<path fill="#F56503" opacity="1.000000" stroke="none" 
	d="
M334.067780,794.599304 
	C352.372589,792.101990 370.747040,789.979492 389.561523,787.910278 
	C383.804108,792.524597 376.889679,793.236328 369.359558,792.824524 
	C364.563690,792.562256 359.403992,793.510986 354.879181,795.188965 
	C349.861359,797.049744 337.217987,797.663147 334.067780,794.599304 
z"/>
<path fill="#F56503" opacity="1.000000" stroke="none" 
	d="
M202.282898,789.263428 
	C202.733810,788.337646 203.467621,787.675293 204.546219,787.006714 
	C205.620972,788.133728 206.350922,789.267090 207.150757,791.045776 
	C208.809036,793.822693 209.234680,797.246643 213.033798,796.920898 
	C213.033798,796.920898 213.031494,796.986450 213.063431,796.978760 
	C216.321716,799.066223 219.548050,801.161316 222.991516,803.525635 
	C220.829697,804.340698 218.316360,804.565796 216.098221,805.495239 
	C210.473312,807.852356 207.090622,803.368530 203.277191,801.086182 
	C202.039581,800.345581 202.710815,796.357300 202.578247,793.850830 
	C202.502213,792.413330 202.565323,790.968445 202.282898,789.263428 
z"/>
<path fill="#F26404" opacity="1.000000" stroke="none" 
	d="
M174.000122,838.591614 
	C173.560211,839.000061 173.121628,839.000122 172.354141,838.997437 
	C168.796860,834.550171 165.568497,830.105591 162.277283,825.327393 
	C164.889252,823.787598 167.570343,822.595154 170.237473,821.372192 
	C174.527206,819.405090 176.174637,820.282288 175.909653,825.088196 
	C175.667786,829.474915 174.667496,833.819885 174.000122,838.591614 
z"/>
<path fill="#F56503" opacity="1.000000" stroke="none" 
	d="
M223.178589,804.098511 
	C232.929428,807.476868 242.548676,804.213501 252.600891,803.373901 
	C248.405365,809.626160 238.312500,812.340942 230.495636,809.129578 
	C227.853760,808.044250 225.582260,806.057251 223.178589,804.098511 
z"/>
<path fill="#F26404" opacity="1.000000" stroke="none" 
	d="
M163.751251,814.105591 
	C161.977036,807.642822 167.483032,811.112305 169.067352,809.223816 
	C169.446487,809.398438 169.825623,809.573059 170.204773,809.747742 
	C169.742569,811.632935 169.652039,813.775696 168.619553,815.265808 
	C168.250992,815.797729 165.601578,814.749268 163.751251,814.105591 
z"/>
<path fill="#F26404" opacity="1.000000" stroke="none" 
	d="
M156.332184,806.933655 
	C155.558212,805.272339 155.160477,803.533203 154.804779,801.399658 
	C159.667450,801.619019 158.444977,804.155701 156.332184,806.933655 
z"/>
<path fill="#F56503" opacity="1.000000" stroke="none" 
	d="
M356.372284,817.313416 
	C356.522461,818.536621 356.346313,819.611328 356.170197,820.685974 
	C355.184418,820.021667 354.198639,819.357361 353.212830,818.693115 
	C354.157227,818.183716 355.101624,817.674316 356.372284,817.313416 
z"/>
<path fill="#F56503" opacity="1.000000" stroke="none" 
	d="
M652.478271,770.405823 
	C653.766663,769.674866 654.938538,769.257446 656.110352,768.840088 
	C656.165039,769.562866 656.219727,770.285645 656.274475,771.008423 
	C654.970215,770.912109 653.665894,770.815735 652.478271,770.405823 
z"/>
<path fill="#F56503" opacity="1.000000" stroke="none" 
	d="
M769.221252,757.195068 
	C770.253479,756.284485 771.225159,755.717834 772.638000,754.893860 
	C771.869141,759.042297 771.869141,759.042297 769.221252,757.195068 
z"/>
<path fill="#F56503" opacity="1.000000" stroke="none" 
	d="
M387.706543,818.864258 
	C386.526276,819.168518 385.436249,819.119141 384.346252,819.069763 
	C384.503357,818.508545 384.660461,817.947388 384.817505,817.386230 
	C385.810608,817.761047 386.803741,818.135864 387.706543,818.864258 
z"/>
<path fill="#F56503" opacity="1.000000" stroke="none" 
	d="
M335.352051,830.856201 
	C336.172424,831.758667 336.800598,832.941833 337.428802,834.125061 
	C336.768616,834.286133 336.108459,834.447266 335.448303,834.608398 
	C335.352142,833.451233 335.256012,832.294067 335.352051,830.856201 
z"/>
<path fill="#F56503" opacity="1.000000" stroke="none" 
	d="
M327.068451,795.459167 
	C328.429443,794.862488 329.858826,794.596619 331.646545,794.381287 
	C331.004150,797.113586 329.490417,797.956970 327.068451,795.459167 
z"/>
<path fill="#F56503" opacity="1.000000" stroke="none" 
	d="
M467.077545,779.489441 
	C468.065399,778.981628 469.130463,778.815063 470.598816,778.694214 
	C470.432037,781.616272 469.068756,781.694763 467.077545,779.489441 
z"/>
<path fill="#F26404" opacity="1.000000" stroke="none" 
	d="
M157.790802,813.077881 
	C157.163940,812.338867 156.903885,811.551453 156.627991,810.449280 
	C157.569260,810.572693 158.526337,811.010742 159.483429,811.448853 
	C159.041489,811.975769 158.599548,812.502625 157.790802,813.077881 
z"/>
<path fill="#F56503" opacity="1.000000" stroke="none" 
	d="
M692.017212,770.408203 
	C692.212708,771.222229 692.087341,771.983521 691.962036,772.744873 
	C691.526550,772.657166 691.091187,772.569519 690.655762,772.481934 
	C691.002625,771.773132 691.349487,771.064270 692.017212,770.408203 
z"/>
<path fill="#F56503" opacity="1.000000" stroke="none" 
	d="
M610.063232,763.478882 
	C610.749695,763.038818 611.499084,762.923645 612.625366,762.864746 
	C612.043579,763.215271 611.084839,763.509460 610.063232,763.478882 
z"/>
<path fill="#F56503" opacity="1.000000" stroke="none" 
	d="
M256.048279,803.431274 
	C256.442871,803.052795 256.885529,802.962341 257.664734,802.929626 
	C257.705902,803.513306 257.410553,804.039246 257.115234,804.565186 
	C256.775604,804.283203 256.435974,804.001221 256.048279,803.431274 
z"/>
<path fill="#F56503" opacity="1.000000" stroke="none" 
	d="
M715.045288,769.398682 
	C715.285156,769.792175 715.283386,770.183533 715.253235,770.572693 
	C715.252441,770.583618 714.949097,770.571106 714.786865,770.569580 
	C714.791077,770.178467 714.795349,769.787354 715.045288,769.398682 
z"/>
<path fill="#F56503" opacity="1.000000" stroke="none" 
	d="
M276.462219,845.612183 
	C276.347015,846.058167 276.066010,846.331482 275.767212,846.583740 
	C275.759552,846.590149 275.556244,846.364807 275.444183,846.247559 
	C275.727478,845.977295 276.010803,845.707031 276.462219,845.612183 
z"/>
<path fill="#034173" opacity="1.000000" stroke="none" 
	d="
M228.519531,212.251190 
	C227.053482,211.069809 225.587433,209.888443 224.016846,207.974152 
	C223.076523,201.703461 220.785828,197.335419 214.815155,195.925964 
	C222.065979,189.571793 230.665085,188.487549 239.605804,190.349228 
	C319.955231,207.079895 400.277161,223.942978 480.607849,240.763657 
	C482.071838,241.070206 483.544952,241.333282 485.772583,241.776276 
	C494.686798,243.555222 502.842285,245.174515 510.997742,246.793793 
	C518.291077,248.301132 525.584412,249.808456 533.451843,251.533844 
	C536.018005,252.093475 538.010132,252.435043 540.002197,252.776611 
	C542.661926,253.372681 545.321716,253.968735 548.725220,254.723175 
	C551.645996,255.234604 553.822998,255.587646 556.000000,255.940689 
	C560.076233,256.888641 564.152466,257.836578 568.614990,258.764771 
	C598.486877,264.788452 627.959045,270.898499 657.460938,276.861694 
	C721.360046,289.777710 785.275635,302.612091 849.178528,315.509491 
	C852.225769,316.124542 855.215698,317.023895 858.587280,318.195862 
	C854.918213,323.533569 850.894226,328.466278 846.461548,333.317810 
	C827.444336,329.648682 808.815674,326.161621 790.231262,322.452667 
	C746.213074,313.667877 702.227783,304.718109 658.207336,295.944580 
	C596.743652,283.694489 535.223450,271.725983 473.794434,259.305511 
	C396.229126,243.622375 318.740387,227.560806 241.178619,211.860001 
	C237.150375,211.044556 232.747818,212.078339 228.519531,212.251190 
z"/>
<path fill="#F58214" opacity="1.000000" stroke="none" 
	d="
M201.681030,502.575989 
	C187.540161,501.459076 173.498962,499.872589 159.455292,498.308258 
	C157.981644,498.144104 156.493408,498.110779 154.584610,498.020477 
	C154.094620,468.079742 153.997833,438.135315 153.977341,408.190826 
	C153.946960,363.766602 153.970627,319.342285 154.058075,274.455688 
	C157.693146,274.423615 158.984787,272.465820 158.981918,269.298065 
	C158.978165,265.156006 160.768448,262.701508 165.603500,262.403564 
	C165.156036,265.850372 164.814102,269.204590 164.263245,272.524109 
	C163.716034,275.821747 164.794083,277.293610 168.219788,276.732147 
	C168.770370,268.957306 172.546936,267.594208 182.926865,271.680481 
	C182.926865,266.170349 182.601532,260.843140 183.008942,255.572586 
	C183.521942,248.936218 185.633514,242.282364 185.216888,235.753357 
	C184.765121,228.674011 190.534485,227.192062 193.858856,223.653442 
	C195.054260,222.380997 198.444077,223.170135 201.297363,223.462753 
	C201.853302,228.604630 201.944321,233.302170 202.035339,237.999710 
	C201.978363,238.446732 201.921387,238.893753 201.859711,240.080673 
	C201.916138,242.213638 201.977295,243.606720 202.038452,244.999786 
	C201.971588,265.963776 201.859848,286.927765 201.846191,307.891785 
	C201.804016,372.632111 201.799286,437.372437 201.681030,502.575989 
z"/>
<path fill="#053D6D" opacity="1.000000" stroke="none" 
	d="
M202.426910,237.904770 
	C201.944321,233.302170 201.853302,228.604630 201.660248,223.450562 
	C201.662842,221.600372 201.767471,220.206680 202.311127,218.400299 
	C203.348434,217.653015 203.946762,217.318451 204.545074,216.983887 
	C203.783920,216.656479 203.022766,216.329071 202.261597,216.001663 
	C202.579788,214.467896 202.897964,212.934128 203.840958,211.172562 
	C205.880600,210.642410 207.295425,210.340057 209.024536,209.970535 
	C207.681061,208.167816 206.805206,206.992584 205.991913,205.532318 
	C206.193604,204.884308 206.332733,204.521317 206.471863,204.158325 
	C209.042938,201.478119 211.614014,198.797897 214.500122,196.021820 
	C220.785828,197.335419 223.076523,201.703461 223.955856,207.620605 
	C222.447296,208.462067 220.110886,208.437683 219.472748,209.466599 
	C215.828979,215.341614 210.080627,218.842865 205.122040,223.254883 
	C204.064667,224.195694 204.268112,226.623230 204.015717,228.383759 
	C203.566315,231.518570 203.212357,234.667053 202.426910,237.904770 
z"/>
<path fill="#FA8611" opacity="1.000000" stroke="none" 
	d="
M510.942688,246.437485 
	C502.842285,245.174515 494.686798,243.555222 486.199371,241.797394 
	C487.624603,239.930130 489.093048,237.510941 491.204010,236.628250 
	C494.707916,235.163071 498.624817,234.685455 502.732056,233.704865 
	C502.905182,236.466965 503.086945,239.366928 503.206726,241.278000 
	C506.214722,243.159027 508.551147,244.620102 510.942688,246.437485 
z"/>
<path fill="#F58214" opacity="1.000000" stroke="none" 
	d="
M154.480988,242.951569 
	C154.030380,230.643326 153.939621,218.282150 153.939148,205.459366 
	C154.686081,206.287445 155.805420,207.535919 155.924576,208.873505 
	C156.718597,217.786911 157.548157,226.712799 157.782516,235.649948 
	C157.845169,238.038834 155.876785,240.480957 154.480988,242.951569 
z"/>
<path fill="#F58214" opacity="1.000000" stroke="none" 
	d="
M155.367462,186.991943 
	C156.268967,182.441696 157.555878,177.881546 159.028870,173.045120 
	C159.503677,172.915421 159.936066,172.986160 160.059418,173.219971 
	C161.789032,176.497879 159.101288,185.023773 155.367462,186.991943 
z"/>
<path fill="#FA8611" opacity="1.000000" stroke="none" 
	d="
M555.999878,255.547699 
	C553.822998,255.587646 551.645996,255.234604 549.138245,254.739685 
	C550.803955,253.345657 552.800354,252.093460 555.466797,250.421021 
	C555.720581,252.674820 555.860168,253.914764 555.999878,255.547699 
z"/>
<path fill="#FA8611" opacity="1.000000" stroke="none" 
	d="
M539.988159,252.402313 
	C538.010132,252.435043 536.018005,252.093475 533.808960,251.545197 
	C536.168396,247.411682 538.194519,248.579437 539.988159,252.402313 
z"/>
<path fill="#044172" opacity="1.000000" stroke="none" 
	d="
M205.929352,205.817352 
	C206.805206,206.992584 207.681061,208.167816 209.024536,209.970535 
	C207.295425,210.340057 205.880600,210.642410 204.058868,210.914078 
	C203.763748,210.179657 203.875549,209.475937 204.269592,208.253403 
	C205.011002,207.095520 205.470184,206.456436 205.929352,205.817352 
z"/>
<path fill="#F18117" opacity="1.000000" stroke="none" 
	d="
M169.622498,156.690781 
	C171.164490,154.590332 173.104599,152.589569 175.360168,150.437012 
	C175.727753,154.137573 173.418228,155.936951 169.622498,156.690781 
z"/>
<path fill="#F58214" opacity="1.000000" stroke="none" 
	d="
M205.991913,205.532318 
	C205.470184,206.456436 205.011002,207.095520 204.290070,207.897278 
	C203.456039,207.107849 202.883759,206.155762 201.937317,204.581238 
	C203.438324,204.380661 204.561447,204.230576 206.078217,204.119415 
	C206.332733,204.521317 206.193604,204.884308 205.991913,205.532318 
z"/>
<path fill="#F58214" opacity="1.000000" stroke="none" 
	d="
M154.362518,199.939117 
	C153.966339,198.929916 153.913071,197.857544 153.954620,196.391418 
	C156.756516,196.869537 156.651184,198.217117 154.362518,199.939117 
z"/>
<path fill="#033C6D" opacity="1.000000" stroke="none" 
	d="
M202.143311,216.322845 
	C203.022766,216.329071 203.783920,216.656479 204.545074,216.983887 
	C203.946762,217.318451 203.348434,217.653015 202.418518,217.993057 
	C202.066284,217.547012 202.045654,217.095520 202.143311,216.322845 
z"/>
<path fill="#FA8611" opacity="1.000000" stroke="none" 
	d="
M564.387878,252.462158 
	C563.941833,252.346909 563.668518,252.065887 563.416260,251.767090 
	C563.409790,251.759460 563.635132,251.556168 563.752441,251.444122 
	C564.022766,251.727463 564.293030,252.010773 564.387878,252.462158 
z"/>
<path fill="#083E6E" opacity="1.000000" stroke="none" 
	d="
M846.870239,333.398987 
	C850.894226,328.466278 854.918213,323.533569 858.975952,318.233032 
	C868.058899,319.107880 877.256897,319.836975 885.545410,325.826965 
	C889.256348,330.859039 892.472229,335.476471 895.688171,340.093903 
	C896.340515,349.088531 896.992798,358.083160 897.744934,367.537354 
	C897.772644,385.280731 897.646790,402.564514 897.639099,419.848389 
	C897.622131,458.258362 897.664368,496.668335 897.781494,535.538208 
	C897.798462,559.464661 897.656372,582.931152 897.648743,606.397644 
	C897.638489,638.196289 897.797913,669.995178 897.694580,701.793274 
	C897.681824,705.711182 896.502380,709.625244 895.224976,713.803223 
	C892.684814,714.282349 890.783325,714.499390 888.732300,714.733459 
	C887.380188,710.012146 884.588318,706.758789 879.617554,705.435852 
	C879.726685,703.313843 879.811890,701.649048 879.811951,699.984314 
	C879.815796,588.840332 879.812683,477.696289 879.811218,366.552277 
	C879.811157,361.886566 879.956665,357.216125 879.793762,352.556305 
	C879.551758,345.631226 875.612732,338.491974 867.244385,337.652893 
	C860.379883,336.964691 853.656311,334.870148 846.870239,333.398987 
z"/>
<path fill="#F98717" opacity="1.000000" stroke="none" 
	d="
M896.083008,340.018982 
	C892.472229,335.476471 889.256348,330.859039 885.871826,325.987976 
	C888.979980,323.858063 892.256714,321.981750 895.395935,320.184174 
	C900.103943,327.398743 900.249329,335.141144 896.083008,340.018982 
z"/>
<path fill="#054174" opacity="1.000000" stroke="none" 
	d="
M879.553894,705.893127 
	C884.588318,706.758789 887.380188,710.012146 888.732300,714.733459 
	C890.783325,714.499390 892.684814,714.282349 895.019775,714.100464 
	C892.975098,721.920227 887.889160,727.423218 880.347900,731.248657 
	C868.682495,732.956055 857.343079,734.610474 845.966003,735.942078 
	C814.918213,739.576050 783.854614,743.073853 752.395996,746.585205 
	C752.666199,745.118408 753.337708,743.691895 754.005066,742.274109 
	C746.061890,738.194336 745.273621,735.509827 750.365051,728.490601 
	C752.974609,727.744202 755.101501,727.380432 757.242859,727.150635 
	C792.511475,723.366394 827.774658,719.528198 863.058044,715.886230 
	C870.303223,715.138428 877.011414,714.118286 879.553894,705.893127 
z"/>
<path fill="#054174" opacity="1.000000" stroke="none" 
	d="
M744.259033,747.497925 
	C744.589539,747.154419 745.180176,746.892639 745.901855,746.853149 
	C745.528320,747.243530 745.023804,747.411621 744.259033,747.497925 
z"/>
<path fill="#054174" opacity="1.000000" stroke="none" 
	d="
M749.259460,746.906372 
	C749.170471,746.476624 749.420898,746.361145 749.866943,746.648010 
	C749.966064,746.780823 749.502380,746.951111 749.259460,746.906372 
z"/>
<path fill="#02A6ED" opacity="1.000000" stroke="none" 
	d="
M879.617554,705.435852 
	C877.011414,714.118286 870.303223,715.138428 863.058044,715.886230 
	C827.774658,719.528198 792.511475,723.366394 757.242859,727.150635 
	C755.101501,727.380432 752.974609,727.744202 750.419678,728.145142 
	C733.645325,729.929565 717.287476,731.569031 700.940613,733.311768 
	C683.595703,735.160828 666.261719,737.112305 648.922119,739.011108 
	C625.307861,741.597046 601.697083,744.215698 578.076721,746.744812 
	C558.086426,748.885193 538.077148,750.848633 518.089905,753.016785 
	C495.133026,755.507141 472.194611,758.167725 449.241730,760.695618 
	C432.726807,762.514465 416.197205,764.199280 399.681549,766.011475 
	C376.562256,768.548279 353.450836,771.156677 330.334259,773.718323 
	C308.040497,776.188782 285.741913,778.615723 263.450928,781.111084 
	C256.353424,781.905579 249.252823,782.718933 242.190720,783.772278 
	C232.523254,785.214111 227.293747,782.916016 223.381287,774.981445 
	C223.065094,746.899841 222.924347,719.078613 222.914871,691.257446 
	C222.862732,538.147217 222.843109,385.036987 222.806671,231.926773 
	C222.806274,230.262253 222.730316,228.597748 222.702896,226.066635 
	C222.758102,223.463669 222.800064,221.727295 222.842026,219.990936 
	C224.575104,217.581100 226.308197,215.171265 228.280411,212.506317 
	C232.747818,212.078339 237.150375,211.044556 241.178619,211.860001 
	C318.740387,227.560806 396.229126,243.622375 473.794434,259.305511 
	C535.223450,271.725983 596.743652,283.694489 658.207336,295.944580 
	C702.227783,304.718109 746.213074,313.667877 790.231262,322.452667 
	C808.815674,326.161621 827.444336,329.648682 846.461609,333.317810 
	C853.656311,334.870148 860.379883,336.964691 867.244385,337.652893 
	C875.612732,338.491974 879.551758,345.631226 879.793762,352.556305 
	C879.956665,357.216125 879.811157,361.886566 879.811218,366.552277 
	C879.812683,477.696289 879.815796,588.840332 879.811951,699.984314 
	C879.811890,701.649048 879.726685,703.313843 879.617554,705.435852 
M482.953430,522.900696 
	C482.971313,525.601929 482.989227,528.303223 482.940887,531.939331 
	C482.951416,567.258362 482.951538,602.577454 482.977081,637.896484 
	C482.988892,654.223145 483.093811,670.549988 483.052979,686.876465 
	C483.044647,690.207642 483.511017,692.276855 487.718933,691.821777 
	C497.786591,690.732788 507.884155,689.887695 517.983826,689.134277 
	C541.180359,687.403870 564.380371,685.712769 587.588196,684.143311 
	C614.450256,682.326721 641.325195,680.700989 668.188110,678.897278 
	C675.931458,678.377380 683.652893,677.529602 691.929382,676.782959 
	C691.929382,664.947327 691.929382,653.495911 692.871155,642.058777 
	C721.477661,640.647705 750.084229,639.236633 779.111023,637.804810 
	C779.111023,626.819763 779.111023,616.539185 780.031433,606.196472 
	C793.148987,606.196472 806.266479,606.196472 819.477051,606.196472 
	C819.477051,537.018372 819.477051,468.820282 819.477051,400.451233 
	C802.725281,398.448059 786.371826,396.494019 770.018799,394.536682 
	C743.734253,391.390625 717.450073,388.242371 691.106445,384.147797 
	C691.106445,373.886017 691.106445,363.624237 691.106445,353.179626 
	C621.401978,343.844971 552.545166,334.623840 482.971771,325.306763 
	C482.971771,362.096344 482.971771,397.549316 482.940613,433.938660 
	C482.953491,442.293091 482.966370,450.647522 482.947479,459.938324 
	C482.964172,467.293030 482.980835,474.647736 482.959534,482.937195 
	C482.973633,488.625214 482.987701,494.313202 482.959839,500.926666 
	C482.976990,504.952271 482.994110,508.977875 482.959290,513.901794 
	C482.977936,516.601990 482.996582,519.302246 482.953430,522.900696 
z"/>
<path fill="#044172" opacity="1.000000" stroke="none" 
	d="
M222.478394,219.985992 
	C222.800064,221.727295 222.758102,223.463669 222.582870,225.616379 
	C218.559998,225.618073 217.577179,223.309006 218.292725,219.454208 
	C219.668503,219.643860 220.891632,219.812454 222.478394,219.985992 
z"/>
<path fill="#044172" opacity="1.000000" stroke="none" 
	d="
M212.986725,796.588135 
	C209.234680,797.246643 208.809036,793.822693 207.332275,791.343750 
	C209.275833,792.749451 211.107758,794.502380 212.986725,796.588135 
z"/>
<path fill="#053D6D" opacity="1.000000" stroke="none" 
	d="
M202.394196,244.928894 
	C201.977295,243.606720 201.916138,242.213638 201.945587,240.410400 
	C205.060349,241.210098 204.456345,242.953064 202.394196,244.928894 
z"/>
<path fill="#F1028C" opacity="1.000000" stroke="none" 
	d="
M779.111023,606.258606 
	C779.111023,616.539185 779.111023,626.819763 779.111023,637.804810 
	C750.084229,639.236633 721.477661,640.647705 692.418091,642.047852 
	C691.965027,642.036865 691.971130,642.070435 691.881226,641.610107 
	C691.535645,630.264526 691.280029,619.379272 691.115479,607.997314 
	C691.158142,582.835693 691.038879,558.170715 691.077576,533.505981 
	C691.137939,495.011261 691.305359,456.516693 691.835815,418.049988 
	C720.781372,420.974304 749.318481,423.870697 778.043762,426.786194 
	C778.043762,428.736176 778.042542,429.885590 778.044006,431.035004 
	C778.085754,463.489563 778.020813,495.944733 778.203613,528.398499 
	C778.349792,554.352722 778.797302,580.305298 779.111023,606.258606 
z"/>
<path fill="#0EF782" opacity="1.000000" stroke="none" 
	d="
M691.947205,642.040649 
	C691.929382,653.495911 691.929382,664.947327 691.929382,676.782959 
	C683.652893,677.529602 675.931458,678.377380 668.188110,678.897278 
	C641.325195,680.700989 614.450256,682.326721 587.588196,684.143311 
	C564.380371,685.712769 541.180359,687.403870 517.983826,689.134277 
	C507.884155,689.887695 497.786591,690.732788 487.718933,691.821777 
	C483.511017,692.276855 483.044647,690.207642 483.052979,686.876465 
	C483.093811,670.549988 482.988892,654.223145 482.977081,637.896484 
	C482.951538,602.577454 482.951416,567.258362 483.368042,531.463074 
	C492.655151,528.977417 501.482819,526.809631 510.382172,524.992798 
	C527.079956,521.584045 543.819031,518.376770 561.035889,519.474121 
	C561.091614,538.597351 561.117310,557.253723 561.133972,575.910095 
	C561.153931,598.231201 561.193054,620.552368 561.150635,642.873352 
	C561.144836,645.925415 561.470337,648.049255 565.415649,647.811279 
	C581.837708,646.820801 598.264343,645.871216 614.700012,645.150085 
	C640.452515,644.020081 666.213623,643.086914 691.971130,642.070435 
	C691.971130,642.070435 691.965027,642.036865 691.947205,642.040649 
z"/>
<path fill="#08F7F3" opacity="1.000000" stroke="none" 
	d="
M482.971771,433.002319 
	C482.971771,397.549316 482.971771,362.096344 482.971771,325.306763 
	C552.545166,334.623840 621.401978,343.844971 691.106445,353.179626 
	C691.106445,363.624237 691.106445,373.886017 691.163818,384.669434 
	C691.221252,385.191101 691.164734,385.286591 690.719360,385.196960 
	C665.709839,382.583099 641.145813,380.058899 615.951782,377.469971 
	C615.951782,389.393433 615.951782,400.143402 615.884399,410.972260 
	C615.816956,411.051178 615.620117,410.985229 615.211609,410.984558 
	C597.104675,409.217316 579.406189,407.450775 561.032227,405.616791 
	C561.032227,420.455658 561.032227,434.227844 560.681763,447.944214 
	C557.930115,443.595520 555.478210,439.330017 553.142090,435.002014 
	C550.770203,430.607788 548.864136,425.818939 542.790161,425.357300 
	C541.675964,425.272614 540.363892,424.876038 539.554504,424.159058 
	C533.501770,418.797455 526.530212,415.678589 518.475464,414.820435 
	C517.546997,414.721558 516.671631,413.557007 515.886597,412.771576 
	C511.014099,407.896698 502.952484,409.564270 500.037506,415.755493 
	C499.342407,417.231812 497.110046,418.644775 495.420166,418.874115 
	C489.208008,419.717224 486.876068,421.886963 485.868561,427.858673 
	C485.560577,429.684174 483.973236,431.293823 482.971771,433.002319 
M499.490509,409.855408 
	C499.792084,409.429932 500.093628,409.004486 500.395203,408.579010 
	C499.948853,408.465607 499.502533,408.352234 499.056152,408.238831 
	C499.002777,408.736725 498.949402,409.234589 499.490509,409.855408 
z"/>
<path fill="#EDFB0C" opacity="1.000000" stroke="none" 
	d="
M779.571228,606.227539 
	C778.797302,580.305298 778.349792,554.352722 778.203613,528.398499 
	C778.020813,495.944733 778.085754,463.489563 778.044006,431.035004 
	C778.042542,429.885590 778.043762,428.736176 778.043762,426.786194 
	C749.318481,423.870697 720.781372,420.974304 691.721924,418.025879 
	C691.199585,417.973877 690.970154,418.007141 691.071472,417.547058 
	C691.170105,406.486847 691.167419,395.886719 691.164734,385.286591 
	C691.164734,385.286591 691.221252,385.191101 691.193481,385.143066 
	C717.450073,388.242371 743.734253,391.390625 770.018799,394.536682 
	C786.371826,396.494019 802.725281,398.448059 819.477051,400.451233 
	C819.477051,468.820282 819.477051,537.018372 819.477051,606.196472 
	C806.266479,606.196472 793.148987,606.196472 779.571228,606.227539 
z"/>
<path fill="#07F7ED" opacity="1.000000" stroke="none" 
	d="
M482.956177,433.470490 
	C483.973236,431.293823 485.560577,429.684174 485.868561,427.858673 
	C486.876068,421.886963 489.208008,419.717224 495.420166,418.874115 
	C497.110046,418.644775 499.342407,417.231812 500.037506,415.755493 
	C502.952484,409.564270 511.014099,407.896698 515.886597,412.771576 
	C516.671631,413.557007 517.546997,414.721558 518.475464,414.820435 
	C526.530212,415.678589 533.501770,418.797455 539.554504,424.159058 
	C540.363892,424.876038 541.675964,425.272614 542.790161,425.357300 
	C548.864136,425.818939 550.770203,430.607788 553.142090,435.002014 
	C555.478210,439.330017 557.930115,443.595520 560.696167,448.411621 
	C561.049500,454.289886 561.037842,459.644958 560.676025,464.965576 
	C555.585022,462.337860 550.985229,459.425476 546.059692,457.250763 
	C542.005188,455.460602 537.644104,453.979431 533.277710,453.365051 
	C525.272644,452.238800 517.130798,451.046143 509.106323,451.370880 
	C499.965363,451.740845 490.798492,453.434113 482.979248,459.001953 
	C482.966370,450.647522 482.953491,442.293091 482.956177,433.470490 
z"/>
<path fill="#05F8E1" opacity="1.000000" stroke="none" 
	d="
M482.963379,459.470154 
	C490.798492,453.434113 499.965363,451.740845 509.106323,451.370880 
	C517.130798,451.046143 525.272644,452.238800 533.277710,453.365051 
	C537.644104,453.979431 542.005188,455.460602 546.059692,457.250763 
	C550.985229,459.425476 555.585022,462.337860 560.690735,465.431488 
	C561.048584,470.622498 561.041504,475.313110 560.645142,479.996887 
	C546.780884,474.182861 532.490845,475.502228 518.565308,476.289917 
	C506.639862,476.964447 494.848328,480.007080 482.997559,482.002441 
	C482.980835,474.647736 482.964172,467.293030 482.963379,459.470154 
z"/>
<path fill="#06F8CF" opacity="1.000000" stroke="none" 
	d="
M482.978546,482.469788 
	C494.848328,480.007080 506.639862,476.964447 518.565308,476.289917 
	C532.490845,475.502228 546.780884,474.182861 560.658875,480.460938 
	C561.052002,485.288086 561.042053,489.644348 560.676025,493.964478 
	C550.407471,485.490173 538.473206,488.183441 527.696045,489.662354 
	C512.609192,491.732666 497.882538,496.428558 483.001770,500.001221 
	C482.987701,494.313202 482.973633,488.625214 482.978546,482.469788 
z"/>
<path fill="#07F7BE" opacity="1.000000" stroke="none" 
	d="
M482.980804,500.463928 
	C497.882538,496.428558 512.609192,491.732666 527.696045,489.662354 
	C538.473206,488.183441 550.407471,485.490173 560.691895,494.418274 
	C561.048767,497.939056 561.033813,500.969879 560.631226,503.956665 
	C548.923584,500.566772 537.533691,500.068420 526.003662,502.846191 
	C511.688080,506.295074 497.343353,509.623169 483.011230,513.003479 
	C482.994110,508.977875 482.976990,504.952271 482.980804,500.463928 
z"/>
<path fill="#09F59D" opacity="1.000000" stroke="none" 
	d="
M561.001892,519.007324 
	C543.819031,518.376770 527.079956,521.584045 510.382172,524.992798 
	C501.482819,526.809631 492.655151,528.977417 483.401154,530.995605 
	C482.989227,528.303223 482.971313,525.601929 483.418671,522.450684 
	C485.370178,521.914673 486.914917,522.062012 488.333740,521.706787 
	C503.662903,517.868530 518.958679,513.896851 534.292175,510.076385 
	C543.167480,507.864990 552.095825,506.354584 561.038818,510.452026 
	C561.044983,513.603210 561.023438,516.305298 561.001892,519.007324 
z"/>
<path fill="#07F6AC" opacity="1.000000" stroke="none" 
	d="
M561.011108,510.002869 
	C552.095825,506.354584 543.167480,507.864990 534.292175,510.076385 
	C518.958679,513.896851 503.662903,517.868530 488.333740,521.706787 
	C486.914917,522.062012 485.370178,521.914673 483.449585,522.001587 
	C482.996582,519.302246 482.977936,516.601990 482.985260,513.452637 
	C497.343353,509.623169 511.688080,506.295074 526.003662,502.846191 
	C537.533691,500.068420 548.923584,500.566772 560.652832,504.384796 
	C561.044983,506.572266 561.028015,508.287567 561.011108,510.002869 
z"/>
<path fill="#02A7ED" opacity="1.000000" stroke="none" 
	d="
M561.038757,510.452026 
	C561.028015,508.287567 561.044983,506.572266 561.040344,504.428833 
	C561.033813,500.969879 561.048767,497.939056 561.047852,494.454437 
	C561.042053,489.644348 561.052002,485.288086 561.048218,480.467773 
	C561.041504,475.313110 561.048584,470.622498 561.040894,465.465942 
	C561.037842,459.644958 561.049500,454.289886 561.046692,448.467407 
	C561.032227,434.227844 561.032227,420.455658 561.032227,405.616791 
	C579.406189,407.450775 597.104675,409.217316 615.244263,411.450562 
	C615.685425,477.924469 615.685425,543.931702 615.685425,610.324524 
	C641.473633,609.697937 666.249023,609.096008 691.024414,608.494080 
	C691.280029,619.379272 691.535645,630.264526 691.881226,641.610046 
	C666.213623,643.086914 640.452515,644.020081 614.700012,645.150085 
	C598.264343,645.871216 581.837708,646.820801 565.415649,647.811279 
	C561.470337,648.049255 561.144836,645.925415 561.150635,642.873352 
	C561.193054,620.552368 561.153931,598.231201 561.133972,575.910095 
	C561.117310,557.253723 561.091614,538.597351 561.035889,519.474121 
	C561.023438,516.305298 561.044983,513.603210 561.038757,510.452026 
z"/>
<path fill="#8EF603" opacity="1.000000" stroke="none" 
	d="
M691.115479,607.997314 
	C666.249023,609.096008 641.473633,609.697937 615.685425,610.324524 
	C615.685425,543.931702 615.685425,477.924469 615.652771,411.451233 
	C615.620117,410.985229 615.816956,411.051178 616.330078,410.984589 
	C641.552246,413.281067 666.261169,415.644104 690.970154,418.007141 
	C690.970154,418.007141 691.199585,417.973877 691.313477,417.997955 
	C691.305359,456.516693 691.137939,495.011261 691.077576,533.505981 
	C691.038879,558.170715 691.158142,582.835693 691.115479,607.997314 
z"/>
<path fill="#0DF686" opacity="1.000000" stroke="none" 
	d="
M691.071472,417.547058 
	C666.261169,415.644104 641.552246,413.281067 616.397522,410.905670 
	C615.951782,400.143402 615.951782,389.393433 615.951782,377.469971 
	C641.145813,380.058899 665.709839,382.583099 690.719360,385.196960 
	C691.167419,395.886719 691.170105,406.486847 691.071472,417.547058 
z"/>
<path fill="#07F7ED" opacity="1.000000" stroke="none" 
	d="
M499.193268,409.793945 
	C498.949402,409.234589 499.002777,408.736725 499.056152,408.238831 
	C499.502533,408.352234 499.948853,408.465607 500.395203,408.579010 
	C500.093628,409.004486 499.792084,409.429932 499.193268,409.793945 
z"/>
</svg>